<svg xmlns="http://www.w3.org/2000/svg" xmlns:xlink="http://www.w3.org/1999/xlink" version="1.1" x="0px" y="0px" viewBox="0 0 100 125" style="enable-background:new 0 0 100 100;" xml:space="preserve"><path d="M10.46,81.56c0,0.83,0.67,1.5,1.5,1.5h23.65l2.32,1.72l7.86,5.83c0.81,0.6,1.76,0.89,2.7,0.89c1.39,0,2.77-0.64,3.66-1.84  c0.33-0.45,0.57-0.95,0.72-1.48c0.64,0.32,1.33,0.49,2.05,0.49c0.22,0,0.45-0.02,0.68-0.05c1.2-0.18,2.26-0.81,2.98-1.79  c0.33-0.45,0.56-0.95,0.71-1.47c0.67,0.35,1.39,0.53,2.12,0.53c1.39,0,2.77-0.64,3.66-1.84c0.23-0.31,0.4-0.65,0.54-1h22.42  c0.83,0,1.5-0.67,1.5-1.5V24.83c0-0.03-0.01-0.07-0.01-0.1c0-0.04-0.01-0.07-0.01-0.11c-0.02-0.11-0.04-0.21-0.08-0.31  c-0.01-0.02-0.01-0.03-0.02-0.05c-0.05-0.12-0.11-0.22-0.18-0.32c-0.01-0.01-0.01-0.03-0.02-0.04L77.61,9.08  c-0.29-0.36-0.72-0.58-1.18-0.58H55.82H44.18H23.57c-0.46,0-0.9,0.21-1.18,0.58L10.78,23.9c-0.01,0.01-0.01,0.02-0.02,0.03  c-0.07,0.1-0.14,0.21-0.19,0.32c-0.01,0.01-0.01,0.03-0.01,0.04c-0.04,0.1-0.06,0.21-0.08,0.32c-0.01,0.04-0.01,0.07-0.01,0.11  c0,0.03-0.01,0.07-0.01,0.1V81.56z M13.46,80.06V66.64l8.15,6.04c0.26,0.19,0.57,0.29,0.89,0.29c0.07,0,0.15-0.01,0.22-0.02  c0,0,0,0,0,0c0.31,0.58,0.73,1.09,1.27,1.49l7.57,5.61H13.46z M35.09,51.98C35.09,51.99,35.09,51.99,35.09,51.98L24.05,66.88  l-1.85,2.5l-5.79-4.29L29.66,47.2l5.79,4.29L35.09,51.98z M60.49,82.6l-2.85-2.11c0,0,0,0-0.01,0l-10.66-7.9  c-0.66-0.49-1.6-0.35-2.1,0.31c-0.49,0.67-0.35,1.61,0.31,2.1l10.66,7.9c0.33,0.25,0.55,0.61,0.61,1.01  c0.06,0.41-0.04,0.82-0.29,1.15c-0.25,0.33-0.61,0.55-1.02,0.61c-0.4,0.06-0.82-0.04-1.15-0.29l-10.66-7.9  c-0.66-0.49-1.6-0.35-2.1,0.31c-0.49,0.67-0.35,1.61,0.31,2.1l7.86,5.83c0.33,0.25,0.55,0.61,0.61,1.02  c0.06,0.41-0.04,0.82-0.29,1.15c-0.51,0.69-1.48,0.83-2.16,0.32l-7.86-5.83L25.78,72.04c-0.31-0.23-0.52-0.58-0.58-0.96  c-0.06-0.39,0.04-0.77,0.27-1.09L37.5,53.77c0.23-0.31,0.57-0.52,0.96-0.58l13.43-2c0.15,1.72-1.07,3.29-2.8,3.54l-5.37,0.8  c-0.6,0.09-1.09,0.53-1.23,1.12s0.07,1.21,0.56,1.57l9.4,6.97l10.66,7.9c0.33,0.25,0.55,0.61,0.61,1.01  c0.06,0.41-0.04,0.82-0.29,1.15c-0.25,0.33-0.61,0.55-1.02,0.61c-0.4,0.06-0.82-0.04-1.15-0.29l-10.66-7.9  c-0.66-0.49-1.6-0.35-2.1,0.31c-0.49,0.67-0.35,1.61,0.31,2.1l10.66,7.9c0,0,0,0,0,0l2.86,2.12c0.33,0.25,0.55,0.61,0.61,1.02  c0.01,0.04,0,0.08,0.01,0.12c-0.02,0.1-0.03,0.2-0.03,0.31c0,0.03,0.01,0.06,0.01,0.1c-0.04,0.22-0.13,0.43-0.27,0.62  C62.15,82.96,61.18,83.11,60.49,82.6z M86.54,80.06H65.76c-0.21-0.7-0.59-1.35-1.12-1.9c0.46-0.29,0.87-0.66,1.21-1.12  c0.72-0.98,1.02-2.17,0.84-3.38s-0.81-2.26-1.79-2.98l-10.66-7.9l-6.49-4.81l1.79-0.27c1.66-0.25,3.13-1.13,4.13-2.48  c1-1.35,1.42-3.01,1.17-4.67c-0.11-0.74-0.5-1.39-1.1-1.84c-0.6-0.45-1.34-0.64-2.08-0.52l-13.02,1.94  c-0.06-0.06-0.11-0.11-0.18-0.16l-8.2-6.08c-0.66-0.49-1.6-0.35-2.1,0.31l-14.68,19.8V26.33h26.66v12.75c0,0.54,0.29,1.04,0.77,1.31  c0.48,0.26,1.06,0.25,1.52-0.03L50,35.68l7.59,4.67c0.24,0.15,0.51,0.22,0.79,0.22c0.25,0,0.5-0.06,0.73-0.19  c0.47-0.27,0.77-0.77,0.77-1.31V26.33h26.66V80.06z M43.12,26.33h13.76v10.06l-6.09-3.75c-0.24-0.15-0.51-0.22-0.79-0.22  s-0.54,0.07-0.79,0.22l-6.09,3.75V26.33z M84.96,23.33H59.64L57.61,11.5h18.1L84.96,23.33z M54.56,11.5l2.04,11.83H43.4l2.04-11.83  H54.56z M24.3,11.5h18.1l-2.04,11.83H15.04L24.3,11.5z"/><text x="0" y="115" fill="#000000" font-size="5px" font-weight="bold" font-family="'Helvetica Neue', Helvetica, Arial-Unicode, Arial, Sans-serif">Created by Athok</text><text x="0" y="120" fill="#000000" font-size="5px" font-weight="bold" font-family="'Helvetica Neue', Helvetica, Arial-Unicode, Arial, Sans-serif">from the Noun Project</text></svg>