<svg
version="1.1"
preserveAspectRatio="none"
id="Layer_1"
x="0px"
y="0px"
viewBox="0 0 1920 1080"
>
<style type="text/css">
.st0{'fill-rule:evenodd;clip-rule:evenodd;fill:#052A42;'}
.st1{'fill:none;stroke:#000000;'}
.st2{'fill:#052A42;'}
</style>
<path
className="st0"
d="M0,0l80,17c80,18,240,52,400,70c160,17,320,17,480,0c160-18,320-52,480-52s320,34,400,52l80,17v207h-80
c-80,0-240,0-400,0s-320,0-480,0s-320,0-480,0s-320,0-400,0H0V0z"
/>
<g>
<path
className="st0"
d="M1919.4,1064l-80-17c-80-18-240.1-52-400.1-70c-160-17-320.1-17-480.1,0c-160,18-320.1,52-480.1,52
S159,995,79,977l-80-17V753h80c80,0,240.1,0,400.1,0s320.1,0,480.1,0s320.1,0,480.1,0s320.1,0,400.1,0h80V1064z"
/>
<path
className="st1"
d="M1920,1063.5l-80-17c-80-18-240.1-52-400.1-70c-160-17-320.1-17-480.1,0c-160,18-320.1,52-480.1,52
s-320.1-34-400.1-52l-80-17v-207h80c80,0,240.1,0,400.1,0s320.1,0,480.1,0s320.1,0,480.1,0s320.1,0,400.1,0h80V1063.5z"
/>
</g>
<path className="st2" d="M0,309h1920v464H0V309z" />

</svg>